<svg width="20" height="21" viewBox="0 0 20 21" fill="none" xmlns="http://www.w3.org/2000/svg">
<path d="M18.3333 14.2806V16.7806C18.3343 17.0127 18.2867 17.2424 18.1937 17.455C18.1008 17.6677 17.9644 17.8586 17.7934 18.0155C17.6224 18.1724 17.4205 18.2918 17.2006 18.3662C16.9808 18.4405 16.7478 18.4681 16.5167 18.4472C13.9523 18.1686 11.4892 17.2924 9.32498 15.8889C7.31151 14.6095 5.60443 12.9024 4.32499 10.8889C2.91663 8.71492 2.04019 6.23974 1.76665 3.66392C1.74583 3.43347 1.77321 3.20122 1.84707 2.98194C1.92092 2.76266 2.03963 2.56116 2.19562 2.39027C2.35162 2.21938 2.54149 2.08284 2.75314 1.98935C2.9648 1.89586 3.1936 1.84747 3.42499 1.84725H5.92499C6.32941 1.84327 6.72148 1.98648 7.02812 2.25019C7.33476 2.5139 7.53505 2.88012 7.59165 3.28058C7.69717 4.08064 7.89286 4.86619 8.17499 5.62225C8.2871 5.92052 8.31137 6.24468 8.24491 6.55632C8.17844 6.86795 8.02404 7.15401 7.79998 7.38058L6.74165 8.43892C7.92795 10.5252 9.65536 12.2526 11.7417 13.4389L12.8 12.3806C13.0266 12.1565 13.3126 12.0021 13.6243 11.9357C13.9359 11.8692 14.26 11.8935 14.5583 12.0056C15.3144 12.2877 16.0999 12.4834 16.9 12.5889C17.3048 12.646 17.6745 12.8499 17.9388 13.1618C18.203 13.4737 18.3435 13.8719 18.3333 14.2806Z" stroke="#01040D" stroke-width="1.4" stroke-linecap="round" stroke-linejoin="round"/>
</svg>
